<?xml version="1.0" encoding="UTF-8"?>
<svg id="Layer_1" xmlns="http://www.w3.org/2000/svg" version="1.1" viewBox="0 0 64 64">
  <!-- Generator: Adobe Illustrator 29.6.1, SVG Export Plug-In . SVG Version: 2.1.1 Build 9)  -->
  <defs>
    <style>
      .st0 {
        fill: #3f75a0;
      }

      .st0, .st1 {
        fill-rule: evenodd;
      }

      .st1 {
        fill: #002c4d;
      }
    </style>
  </defs>
  <path class="st1" d="M60.1,54.2L42.3,9.1c-.1-.4-.5-.6-.9-.6h-.4c-.4,0-.8.2-.9.6l-7,17.7c0,.2,0,.5,0,.7l9.4,23.7c1,2.6,3.5,4.3,6.3,4.3h10.4c.7,0,1.2-.7.9-1.3Z"/>
  <polygon class="st1" points="12 39.5 9.7 39.5 8.7 41.9 11.1 41.9 12 39.5"/>
  <path class="st1" d="M27.6,8.5c-3.4,0-6.5,2.1-7.8,5.3l-5.1,12.9c-.3.7.2,1.4.9,1.4h2.7c.7,0,1.2.7.9,1.3l-2,5.4c-.2.6.2,1.3.9,1.3h3c.7,0,1.2.7.9,1.3l-2.7,7.3c-.1.4-.5.6-.9.6h-4.5c-.4,0-.8.3-.9.6l-.8,2.3c-.1.4-.5.6-.9.6h-4.8c-.4,0-.8.2-.9.6l-1.8,4.6c-.3.7.2,1.4.9,1.4h9.3c3.4,0,6.5-2.1,7.8-5.3l15.9-40.4c.3-.7-.2-1.4-.9-1.4h-9.3Z"/>
  <polygon class="st0" points="14.3 37.8 6.2 37.8 9.2 29.7 17.3 29.7 14.3 37.8"/>
  <polygon class="st0" points="18 43.6 12.1 43.6 14.3 37.8 20.1 37.8 18 43.6"/>
  <polygon class="st0" points="10.8 47.2 7.2 47.2 8.5 43.6 12.1 43.6 10.8 47.2"/>
</svg>